<svg xmlns="http://www.w3.org/2000/svg" width="1440" height="900" viewBox="0 0 1440 900" role="img" aria-labelledby="title desc">
<title id="title">Explore desktop dark prototype</title>
<desc id="desc">Synthetic desktop catalog exploration layout with persistent filters, URL-owned state, active filters, result cards, stale and uncertain states.</desc>
<rect width="1440" height="900" fill="#11131A"/>
<style>
  text { font-family: Inter, ui-sans-serif, system-ui, -apple-system, "Segoe UI", sans-serif; fill: #F5F7FB; }
  .muted { fill: #B6C0D4; }
  .label { font-size: 12px; font-weight: 700; letter-spacing: .08em; }
  .small { font-size: 13px; }
  .body { font-size: 15px; }
  .h3 { font-size: 20px; font-weight: 700; }
  .h2 { font-size: 28px; font-weight: 750; }
  .h1 { font-size: 42px; font-weight: 780; }
</style><rect x="0" y="0" width="1440" height="72" rx="0" fill="#191D28" stroke="#46506A" stroke-width="1"/><text x="40" y="32" class="label" fill="#A8B5FF" font-weight="800">ARCAEA-VIEWER</text><text x="40" y="52" class="small" fill="#B6C0D4">UNOFFICIAL WIKI</text><text x="410" y="44" class="body" fill="#F5F7FB" font-weight="700">Home</text><text x="490" y="44" class="body" fill="#A8B5FF" font-weight="700">Explore</text><text x="585" y="44" class="body" fill="#F5F7FB" font-weight="700">Wiki</text><text x="655" y="44" class="body" fill="#F5F7FB" font-weight="700">Information</text><rect x="1240" y="16" width="72" height="40" rx="6" fill="#191D28" stroke="#73809B" stroke-width="1"/><text x="1276.0" y="41.0" class="body" fill="#F5F7FB" font-weight="700" text-anchor="middle">Light</text><rect x="1322" y="16" width="82" height="40" rx="6" fill="#191D28" stroke="#73809B" stroke-width="1"/><text x="1363.0" y="41.0" class="body" fill="#F5F7FB" font-weight="700" text-anchor="middle">Settings</text><rect x="0" y="72" width="300" height="828" rx="0" fill="#191D28" stroke="#46506A" stroke-width="1"/><text x="28" y="112" class="label" fill="#B6C0D4">FILTERS</text><text x="28" y="150" class="body" font-weight="750">Entity type</text><rect x="28" y="178" width="18" height="18" rx="3" fill="#232938" stroke="#73809B" stroke-width="2"/><text x="58" y="193" class="body" fill="#F5F7FB">All entities</text><rect x="28" y="216" width="18" height="18" rx="3" fill="#232938" stroke="#A8B5FF" stroke-width="2"/><text x="37" y="231" class="small" fill="#A8B5FF" font-weight="800" text-anchor="middle">✓</text><text x="58" y="231" class="body" fill="#F5F7FB">Songs</text><rect x="28" y="254" width="18" height="18" rx="3" fill="#232938" stroke="#73809B" stroke-width="2"/><text x="58" y="269" class="body" fill="#F5F7FB">Packs</text><rect x="28" y="292" width="18" height="18" rx="3" fill="#232938" stroke="#73809B" stroke-width="2"/><text x="58" y="307" class="body" fill="#F5F7FB">Partners</text><rect x="28" y="330" width="18" height="18" rx="3" fill="#232938" stroke="#73809B" stroke-width="2"/><text x="58" y="345" class="body" fill="#F5F7FB">Game topics</text><line x1="28" y1="386" x2="272" y2="386" stroke="#46506A" stroke-width="1"/><text x="28" y="424" class="body" font-weight="750">Pack</text><rect x="28" y="446" width="18" height="18" rx="3" fill="#232938" stroke="#73809B" stroke-width="1"/><text x="58" y="461" class="body" fill="#F5F7FB">Prism Archive</text><rect x="28" y="484" width="18" height="18" rx="3" fill="#232938" stroke="#73809B" stroke-width="1"/><text x="58" y="499" class="body" fill="#F5F7FB">Signal Garden</text><rect x="28" y="522" width="18" height="18" rx="3" fill="#232938" stroke="#73809B" stroke-width="1"/><text x="58" y="537" class="body" fill="#F5F7FB">No pack</text><line x1="28" y1="576" x2="272" y2="576" stroke="#46506A" stroke-width="1"/><text x="28" y="612" class="body" font-weight="750">Difficulty</text><rect x="28" y="634" width="104" height="26" rx="4" fill="#232938" stroke="#B6C0D4" stroke-width="1"/><text x="38" y="652" class="small" fill="#B6C0D4" font-weight="700">D-03</text><rect x="144" y="634" width="104" height="26" rx="4" fill="#232938" stroke="#B6C0D4" stroke-width="1"/><text x="154" y="652" class="small" fill="#B6C0D4" font-weight="700">D-07</text><rect x="28" y="678" width="104" height="26" rx="4" fill="#232938" stroke="#B6C0D4" stroke-width="1"/><text x="38" y="696" class="small" fill="#B6C0D4" font-weight="700">D-10+</text><rect x="28" y="720" width="244" height="44" rx="6" fill="#191D28" stroke="#73809B" stroke-width="1"/><text x="150.0" y="747.0" class="body" fill="#F5F7FB" font-weight="700" text-anchor="middle">Clear all filters</text><text x="340" y="116" class="h2">Explore the catalog</text><text x="340" y="146" class="small" fill="#B6C0D4">Synthetic prototype data — URL state is the source of truth.</text><rect x="340" y="166" width="1030" height="52" rx="8" fill="#191D28" stroke="#73809B" stroke-width="1"/><circle cx="364" cy="192" r="8" fill="none" stroke="#B6C0D4" stroke-width="2"/><line x1="370" y1="198" x2="376" y2="204" stroke="#B6C0D4" stroke-width="2"/><text x="388" y="198" class="body" fill="#B6C0D4">glass  •  type=song</text><rect x="1266" y="173" width="96" height="38" rx="6" fill="#A8B5FF" stroke="#A8B5FF" stroke-width="1"/><text x="1314.0" y="197.0" class="body" fill="#11131A" font-weight="700" text-anchor="middle">Search</text><rect x="340" y="232" width="1030" height="48" rx="6" fill="#232938" stroke="#46506A" stroke-width="1"/><text x="356" y="262" class="small" fill="#A8B5FF">/explore?q=glass&amp;type=song&amp;pack=prism-archive&amp;sort=level&amp;view=cards</text><rect x="340" y="296" width="1030" height="50" rx="6" fill="#191D28" stroke="#FFC66D" stroke-width="1"/><text x="358" y="326" class="label" fill="#FFC66D">STALE SNAPSHOT</text><text x="490" y="326" class="small" fill="#B6C0D4">Catalog reviewed for prototype version 0.1.0 • results may be incomplete</text><rect x="340" y="366" width="142" height="26" rx="4" fill="#232938" stroke="#A8B5FF" stroke-width="1"/><text x="350" y="384" class="small" fill="#A8B5FF" font-weight="700">Songs ×</text><rect x="492" y="366" width="190" height="26" rx="4" fill="#232938" stroke="#A8B5FF" stroke-width="1"/><text x="502" y="384" class="small" fill="#A8B5FF" font-weight="700">Prism Archive ×</text><rect x="692" y="366" width="126" height="26" rx="4" fill="#232938" stroke="#A8B5FF" stroke-width="1"/><text x="702" y="384" class="small" fill="#A8B5FF" font-weight="700">Level 7+ ×</text><text x="1070" y="385" class="body" font-weight="750">528 results</text><rect x="1170" y="356" width="92" height="42" rx="6" fill="#191D28" stroke="#73809B" stroke-width="1"/><text x="1216.0" y="382.0" class="body" fill="#F5F7FB" font-weight="700" text-anchor="middle">Level ↓</text><rect x="1272" y="356" width="98" height="42" rx="6" fill="#A8B5FF" stroke="#A8B5FF" stroke-width="1"/><text x="1321.0" y="382.0" class="body" fill="#11131A" font-weight="700" text-anchor="middle">Cards</text><rect x="340" y="426" width="490" height="196" rx="10" fill="#191D28" stroke="#46506A" stroke-width="1"/><rect x="356" y="442" width="132" height="132" rx="8" fill="#232938"/><polygon points="374,552 414,456 472,510 434,572" fill="#A8B5FF" opacity=".45"/><text x="506" y="468" class="body" font-weight="750">Glass Meridian</text><text x="506" y="494" class="small" fill="#B6C0D4">Synthetic artist</text><text x="506" y="526" class="body">D-03 • D-07 • D-10</text><text x="506" y="558" class="small" fill="#74D5A7" font-weight="750">REVIEWED</text><text x="506" y="592" class="body" fill="#A8B5FF" font-weight="750">Open song →</text><rect x="860" y="426" width="490" height="196" rx="10" fill="#191D28" stroke="#46506A" stroke-width="1"/><rect x="876" y="442" width="132" height="132" rx="8" fill="#232938" stroke="#46506A" stroke-width="1"/><polygon points="899.76,471.04 968.4,457.84 988.2,518.56 918.24,550.24" fill="none" stroke="#46506A" stroke-width="2"/><text x="942.0" y="512.0" class="small" fill="#B6C0D4" font-weight="700" text-anchor="middle">No approved image</text><text x="1026" y="468" class="body" font-weight="750">Parallax Bloom / 長い合成タイトル</text><text x="1026" y="494" class="small" fill="#B6C0D4">Synthetic collective</text><text x="1026" y="526" class="body">D-04 • D-08 • D-11</text><text x="1026" y="558" class="small" fill="#FFC66D" font-weight="750">UNCERTAIN LEVEL</text><text x="1026" y="592" class="body" fill="#A8B5FF" font-weight="750">Open song →</text><rect x="340" y="650" width="490" height="196" rx="10" fill="#191D28" stroke="#46506A" stroke-width="1"/><rect x="356" y="666" width="132" height="132" rx="8" fill="#232938" stroke="#46506A" stroke-width="1"/><polygon points="379.76,695.04 448.4,681.84 468.2,742.56 398.24,774.24" fill="none" stroke="#46506A" stroke-width="2"/><text x="422.0" y="736.0" class="small" fill="#B6C0D4" font-weight="700" text-anchor="middle">No approved image</text><text x="506" y="692" class="body" font-weight="750">Silent Vector</text><text x="506" y="718" class="small" fill="#B6C0D4">Synthetic artist</text><text x="506" y="750" class="body">D-02 • D-06 • D-09</text><text x="506" y="782" class="small" fill="#FFC66D" font-weight="750">STALE</text><text x="506" y="816" class="body" fill="#A8B5FF" font-weight="750">Open song →</text><rect x="860" y="650" width="490" height="196" rx="10" fill="#191D28" stroke="#46506A" stroke-width="1"/><rect x="876" y="666" width="132" height="132" rx="8" fill="#232938"/><polygon points="894,776 934,680 992,734 954,796" fill="#A8B5FF" opacity=".45"/><text x="1026" y="692" class="body" font-weight="750">Astral Relay</text><text x="1026" y="718" class="small" fill="#B6C0D4">Synthetic artist</text><text x="1026" y="750" class="body">D-05 • D-09 • Unknown</text><text x="1026" y="782" class="small" fill="#B6C0D4" font-weight="750">MISSING VALUE</text><text x="1026" y="816" class="body" fill="#A8B5FF" font-weight="750">Open song →</text></svg>
