<svg xmlns="http://www.w3.org/2000/svg" width="390" height="844" viewBox="0 0 390 844" role="img" aria-labelledby="title desc">
<title id="title">Explore narrow light prototype</title>
<desc id="desc">Synthetic narrow explore layout with search, stale notice, filter trigger, active chips, and media-optional one-column results.</desc>
<rect width="390" height="844" fill="#F5F7FB"/>
<style>
  text { font-family: Inter, ui-sans-serif, system-ui, -apple-system, "Segoe UI", sans-serif; fill: #151922; }
  .muted { fill: #4C566A; }
  .label { font-size: 12px; font-weight: 700; letter-spacing: .08em; }
  .small { font-size: 13px; }
  .body { font-size: 15px; }
  .h3 { font-size: 20px; font-weight: 700; }
  .h2 { font-size: 28px; font-weight: 750; }
  .h1 { font-size: 42px; font-weight: 780; }
</style><rect x="0" y="0" width="390" height="64" rx="0" fill="#FFFFFF" stroke="#BCC6D6" stroke-width="1"/><rect x="16" y="12" width="54" height="40" rx="6" fill="#FFFFFF" stroke="#7D889B" stroke-width="1"/><text x="43.0" y="37.0" class="body" fill="#151922" font-weight="700" text-anchor="middle">Menu</text><text x="84" y="32" class="label" fill="#3D4FD7" font-weight="800">EXPLORE</text><text x="84" y="49" class="small" fill="#4C566A">528 SYNTHETIC RESULTS</text><rect x="314" y="12" width="60" height="40" rx="6" fill="#FFFFFF" stroke="#7D889B" stroke-width="1"/><text x="344.0" y="37.0" class="body" fill="#151922" font-weight="700" text-anchor="middle">Theme</text><rect x="16" y="84" width="358" height="52" rx="8" fill="#FFFFFF" stroke="#7D889B" stroke-width="1"/><circle cx="40" cy="110" r="8" fill="none" stroke="#4C566A" stroke-width="2"/><line x1="46" y1="116" x2="52" y2="122" stroke="#4C566A" stroke-width="2"/><text x="64" y="116" class="body" fill="#4C566A">glass</text><rect x="270" y="91" width="96" height="38" rx="6" fill="#3D4FD7" stroke="#3D4FD7" stroke-width="1"/><text x="318.0" y="115.0" class="body" fill="#FFFFFF" font-weight="700" text-anchor="middle">Search</text><rect x="16" y="152" width="358" height="60" rx="6" fill="#E9EEF7" stroke="#8A4B00" stroke-width="1"/><text x="30" y="178" class="label" fill="#8A4B00">STALE SNAPSHOT</text><text x="30" y="200" class="small" fill="#4C566A">Results may be incomplete • catalog 0.1.0</text><rect x="16" y="228" width="112" height="44" rx="6" fill="#3D4FD7" stroke="#3D4FD7" stroke-width="1"/><text x="72.0" y="255.0" class="body" fill="#FFFFFF" font-weight="700" text-anchor="middle">Filters (3)</text><rect x="138" y="228" width="112" height="44" rx="6" fill="#FFFFFF" stroke="#7D889B" stroke-width="1"/><text x="194.0" y="255.0" class="body" fill="#151922" font-weight="700" text-anchor="middle">Level ↓</text><rect x="260" y="228" width="114" height="44" rx="6" fill="#FFFFFF" stroke="#7D889B" stroke-width="1"/><text x="317.0" y="255.0" class="body" fill="#151922" font-weight="700" text-anchor="middle">Cards</text><text x="16" y="304" class="small" fill="#4C566A" font-weight="700">Active filters</text><rect x="16" y="320" width="104" height="26" rx="4" fill="#E9EEF7" stroke="#3D4FD7" stroke-width="1"/><text x="26" y="338" class="small" fill="#3D4FD7" font-weight="700">Songs ×</text><rect x="128" y="320" width="154" height="26" rx="4" fill="#E9EEF7" stroke="#3D4FD7" stroke-width="1"/><text x="138" y="338" class="small" fill="#3D4FD7" font-weight="700">Prism Archive ×</text><text x="16" y="378" class="small" fill="#4C566A">/explore?q=glass&amp;type=song&amp;pack=prism-archive</text><rect x="16" y="410" width="358" height="178" rx="8" fill="#FFFFFF" stroke="#BCC6D6" stroke-width="1"/><rect x="30" y="426" width="96" height="96" rx="6" fill="#E9EEF7"/><polygon points="48,510 78,438 116,480 86,528" fill="#3D4FD7" opacity=".45"/><text x="142" y="450" class="body" font-weight="750">Glass Meridian</text><text x="142" y="478" class="small" fill="#4C566A">Synthetic artist</text><text x="142" y="506" class="small">D-03 • D-07 • D-10</text><text x="142" y="534" class="small" fill="#246B47" font-weight="750">REVIEWED</text><text x="30" y="564" class="body" fill="#3D4FD7" font-weight="750">Open song →</text><rect x="16" y="606" width="358" height="178" rx="8" fill="#FFFFFF" stroke="#BCC6D6" stroke-width="1"/><rect x="30" y="622" width="96" height="96" rx="8" fill="#E9EEF7" stroke="#BCC6D6" stroke-width="1"/><polygon points="47.28,643.12 97.19999999999999,633.52 111.6,677.68 60.72,700.72" fill="none" stroke="#BCC6D6" stroke-width="2"/><text x="78.0" y="674.0" class="small" fill="#4C566A" font-weight="700" text-anchor="middle">No media</text><text x="142" y="646" class="body" font-weight="750">Parallax Bloom / 長い合成タイトル</text><text x="142" y="674" class="small" fill="#4C566A">Synthetic artist</text><text x="142" y="702" class="small">D-04 • D-08 • D-11</text><text x="142" y="730" class="small" fill="#8A4B00" font-weight="750">UNCERTAIN</text><text x="30" y="760" class="body" fill="#3D4FD7" font-weight="750">Open song →</text><rect x="16" y="812" width="358" height="44" rx="6" fill="#FFFFFF" stroke="#7D889B" stroke-width="1"/><text x="195.0" y="839.0" class="body" fill="#151922" font-weight="700" text-anchor="middle">Load page 2</text></svg>
